<?xml version="1.0" standalone="no"?>
<!DOCTYPE svg PUBLIC "-//W3C//DTD SVG 20010904//EN"
 "http://www.w3.org/TR/2001/REC-SVG-20010904/DTD/svg10.dtd">
<svg version="1.0" xmlns="http://www.w3.org/2000/svg"
 width="7345.000000pt" height="2368.000000pt" viewBox="0 0 7345.000000 2368.000000"
 preserveAspectRatio="xMidYMid meet">

<g transform="translate(0.000000,2368.000000) scale(0.100000,-0.100000)"
fill="#000000" stroke="none">
<path d="M12855 23625 c-31 -108 -133 -516 -184 -735 -178 -768 -355 -1762
-465 -2600 -147 -1119 -238 -2801 -240 -4449 l-1 -714 90 -24 c120 -32 290
-116 395 -194 46 -35 160 -137 252 -228 l168 -163 149 144 c292 284 449 385
696 448 l70 18 -2 603 c-3 927 -41 2149 -88 2854 -73 1077 -125 1563 -261
2425 -132 840 -289 1618 -465 2310 -38 151 -75 295 -83 320 l-13 45 -18 -60z
m79 -680 c183 -857 424 -2414 511 -3295 105 -1070 175 -2590 175 -3820 l0
-405 -52 -19 c-102 -36 -264 -140 -528 -339 -79 -60 -150 -112 -157 -114 -11
-4 -13 791 -12 4118 0 2464 4 4116 9 4104 5 -11 30 -114 54 -230z"/>
<path d="M7168 23665 c-9 -15 -99 -361 -152 -580 -192 -807 -366 -1744 -491
-2645 -123 -889 -200 -1982 -245 -3451 -15 -476 -30 -1803 -21 -1836 6 -23 17
-29 96 -50 126 -33 292 -117 405 -204 52 -40 166 -143 252 -227 l158 -155 148
145 c293 284 450 385 697 448 l70 18 3 208 c4 240 -14 1331 -28 1789 -47 1445
-125 2497 -256 3415 -141 995 -341 2030 -544 2815 -74 286 -84 322 -92 310z
m22 -522 c16 -59 115 -546 159 -788 158 -861 328 -2026 396 -2710 104 -1050
175 -2601 175 -3836 l0 -386 -42 -12 c-89 -26 -240 -122 -509 -322 -103 -77
-189 -139 -193 -139 -3 0 -6 1852 -6 4115 0 2263 2 4115 5 4115 2 0 9 -17 15
-37z"/>
<path d="M10012 20980 c-75 -190 -263 -897 -356 -1340 -221 -1054 -311 -2002
-366 -3855 -32 -1057 -38 -1181 -61 -1242 -9 -25 -11 -26 -20 -10 -21 37 -62
255 -163 867 -58 349 -121 718 -141 820 -87 447 -156 647 -212 614 -24 -14
-69 -103 -93 -189 -95 -329 -209 -1126 -227 -1580 -5 -139 -4 -165 11 -193 20
-40 76 -76 263 -171 231 -119 294 -190 333 -382 36 -171 23 -463 -26 -629 -35
-120 -99 -208 -162 -223 -38 -9 -113 19 -208 79 -137 87 -204 116 -260 112
-68 -4 -88 -34 -93 -138 -11 -246 151 -564 327 -643 33 -15 68 -21 118 -21 60
0 81 5 140 33 95 46 232 186 342 349 46 67 87 122 93 122 13 0 12 -74 -8 -420
-9 -168 -13 -318 -9 -333 9 -36 44 -50 160 -66 177 -24 244 -68 340 -226 53
-86 202 -374 255 -493 l33 -73 74 158 c98 208 194 383 263 479 73 102 118 126
291 155 69 12 133 25 143 30 15 8 17 25 17 121 0 62 -7 226 -16 366 -15 246
-14 309 6 297 5 -3 48 -63 97 -132 96 -138 222 -274 293 -315 171 -99 326 -64
452 102 62 81 109 178 143 295 46 156 36 327 -20 349 -32 12 -101 5 -143 -14
-24 -11 -89 -48 -145 -83 -170 -107 -226 -116 -295 -44 -143 148 -190 681 -81
935 45 105 119 165 348 281 106 55 170 94 191 117 l30 35 0 132 c0 357 -106
1161 -204 1552 -51 199 -103 296 -146 270 -19 -12 -58 -100 -84 -191 -59 -202
-125 -547 -241 -1267 -103 -637 -143 -838 -166 -853 -29 -18 -44 195 -64 901
-59 2099 -141 3050 -351 4090 -102 503 -258 1107 -367 1420 -23 65 -25 68 -35
45z m71 -715 c183 -919 341 -2022 402 -2790 45 -584 81 -1424 106 -2500 13
-574 18 -2113 6 -2168 -9 -44 -17 -48 -150 -77 -177 -39 -233 -84 -353 -287
-37 -62 -68 -113 -70 -113 -2 0 -4 1844 -4 4098 0 2288 4 4090 9 4082 5 -8 29
-118 54 -245z"/>
<path d="M20106 18658 c4 -7 1062 -1387 2351 -3067 l2343 -3054 0 -2689 0
-2688 770 0 770 0 0 2688 0 2687 2350 3064 c1293 1685 2350 3065 2350 3067 0
2 -449 4 -998 4 l-999 0 -1733 -2260 c-954 -1243 -1736 -2260 -1740 -2260 -3
0 -785 1017 -1739 2260 l-1733 2260 -1000 0 c-778 0 -998 -3 -992 -12z"/>
<path d="M41310 12915 l0 -5755 775 0 775 0 0 2185 0 2185 1232 -2 1231 -3
1248 -2180 1248 -2180 890 -3 890 -2 -831 1452 c-457 799 -1042 1821 -1299
2271 -258 450 -469 822 -469 825 0 4 37 20 83 35 331 113 655 276 953 478 361
245 729 612 970 969 532 787 713 1732 508 2648 -227 1017 -931 1896 -1917
2396 -422 214 -862 346 -1382 413 -118 15 -353 17 -2517 20 l-2388 4 0 -5756z
m4760 4190 c1047 -129 1868 -885 1970 -1814 18 -162 8 -393 -24 -547 -75 -358
-246 -677 -516 -957 -357 -373 -839 -608 -1425 -698 -60 -10 -474 -14 -1647
-16 l-1568 -4 0 2026 0 2025 1543 0 c1326 0 1560 -2 1667 -15z"/>
<path d="M53200 12915 l0 -5755 775 0 775 0 0 2490 0 2490 3185 0 3185 0 0
-2490 0 -2490 775 0 775 0 0 5755 0 5755 -775 0 -775 0 0 -2490 0 -2490 -3185
0 -3185 0 0 2490 0 2490 -775 0 -775 0 0 -5755z"/>
<path d="M33915 14834 c-16 -2 -79 -9 -140 -15 -711 -71 -1410 -363 -1999
-833 -146 -116 -456 -429 -579 -584 -445 -563 -712 -1194 -808 -1907 -26 -197
-36 -579 -20 -780 63 -794 343 -1505 837 -2125 202 -253 522 -552 794 -742
307 -214 698 -406 1040 -512 367 -113 679 -163 1065 -173 332 -8 629 20 930
87 1335 298 2402 1269 2823 2570 216 669 242 1415 72 2105 -271 1098 -1007
2016 -2023 2520 -377 188 -769 307 -1202 366 -117 16 -216 21 -455 24 -168 2
-318 1 -335 -1z m614 -1560 c384 -58 740 -207 1056 -444 127 -94 349 -316 442
-441 192 -256 322 -526 398 -823 52 -206 69 -343 69 -566 0 -296 -48 -558
-149 -816 -427 -1093 -1579 -1693 -2706 -1409 -237 60 -497 175 -697 308 -572
383 -926 952 -1023 1647 -18 128 -15 433 5 575 45 315 157 632 313 885 188
304 459 578 755 762 296 184 653 304 999 338 126 12 410 4 538 -16z"/>
<path d="M69255 14834 c-16 -2 -79 -9 -140 -15 -349 -35 -739 -137 -1080 -281
-467 -198 -879 -480 -1240 -850 -610 -623 -974 -1394 -1077 -2283 -20 -172
-17 -677 6 -850 62 -482 178 -870 381 -1275 196 -390 409 -685 720 -995 499
-500 1097 -840 1775 -1010 329 -83 570 -110 960 -109 246 0 323 4 460 22 640
86 1186 294 1703 648 59 41 110 74 112 74 3 0 5 -169 5 -375 l0 -375 770 0
771 0 -4 2098 c-3 2276 0 2119 -57 2440 -272 1519 -1459 2740 -2979 3062 -266
57 -416 71 -751 75 -168 2 -318 1 -335 -1z m614 -1560 c921 -139 1670 -815
1897 -1710 51 -205 68 -341 68 -564 0 -224 -17 -363 -69 -565 -169 -659 -624
-1212 -1240 -1506 -775 -370 -1674 -278 -2366 243 -486 366 -800 900 -895
1523 -20 132 -23 449 -5 575 62 447 221 823 491 1165 141 179 386 395 591 522
299 186 651 300 1039 337 86 8 386 -4 489 -20z"/>
<path d="M6105 14714 c-267 -40 -438 -150 -533 -345 -53 -108 -72 -180 -79
-304 -10 -173 24 -265 97 -265 18 0 93 16 168 36 117 31 154 36 252 37 83 1
132 -4 175 -17 220 -65 496 -317 611 -559 29 -61 36 -88 36 -135 0 -98 -37
-145 -162 -210 -66 -34 -78 -44 -100 -88 -22 -43 -25 -65 -28 -179 -9 -311 90
-685 273 -1033 109 -206 241 -393 519 -735 89 -109 171 -215 184 -236 l22 -38
-32 -41 c-18 -22 -107 -118 -196 -214 -231 -244 -343 -397 -402 -551 -60 -152
-59 -271 3 -401 87 -183 275 -330 513 -402 117 -35 318 -41 399 -10 74 28 110
59 140 121 41 83 34 145 -38 310 -136 314 -142 577 -16 736 25 32 37 39 65 39
41 0 162 -38 447 -141 365 -132 589 -188 697 -173 60 8 133 49 192 106 74 72
108 166 94 261 -8 55 -19 60 -222 116 -372 101 -617 208 -884 386 -165 109
-286 212 -450 382 -400 412 -676 910 -719 1297 -14 122 5 206 45 206 21 0 48
-50 106 -195 216 -545 451 -861 977 -1313 363 -313 596 -452 885 -527 156 -40
196 -22 196 88 0 111 -104 360 -170 409 -14 10 -60 31 -103 47 -91 34 -190 94
-307 187 -117 93 -478 456 -580 584 -174 218 -298 441 -347 626 -23 87 -26
117 -25 251 l0 153 -30 25 c-17 15 -63 42 -101 62 -165 83 -178 102 -154 225
9 45 33 117 55 162 74 154 285 341 448 397 109 38 234 32 442 -20 237 -59 282
-55 299 27 15 69 6 252 -16 337 -36 137 -92 238 -185 330 -139 138 -274 187
-516 188 -169 1 -239 -13 -369 -75 -68 -32 -101 -57 -171 -127 -132 -130 -207
-274 -276 -521 -47 -167 -54 -185 -69 -168 -7 7 -31 69 -54 138 -144 429 -342
649 -656 730 -78 20 -281 34 -350 24z"/>
<path d="M11880 14713 c-298 -39 -499 -212 -582 -499 -19 -66 -23 -103 -23
-224 0 -183 7 -200 89 -200 29 0 115 16 192 35 279 70 383 69 533 -6 147 -74
311 -229 375 -356 33 -67 66 -186 66 -242 0 -57 -32 -87 -168 -160 -56 -30
-108 -61 -115 -69 -8 -11 -12 -64 -12 -181 -1 -152 -3 -174 -28 -256 -54 -174
-183 -407 -326 -585 -95 -118 -304 -339 -431 -457 -218 -201 -358 -295 -533
-358 -41 -15 -55 -27 -87 -77 -65 -100 -130 -277 -130 -354 0 -57 19 -92 56
-104 28 -10 51 -7 136 14 337 84 602 256 1093 706 367 337 582 647 764 1103
70 174 97 222 126 222 60 0 57 -202 -7 -420 -136 -470 -554 -1040 -1010 -1381
-295 -220 -578 -350 -1043 -479 -177 -49 -175 -47 -175 -143 0 -60 5 -88 23
-127 28 -59 115 -142 184 -176 101 -50 293 -18 648 106 618 217 583 209 639
143 20 -23 46 -67 58 -97 20 -50 23 -73 22 -206 -1 -178 -15 -240 -99 -436
-61 -143 -73 -194 -56 -256 15 -55 67 -122 116 -150 123 -69 382 -50 583 42
161 75 302 206 372 348 35 71 42 96 47 163 15 230 -112 448 -490 842 -81 84
-155 164 -164 178 -26 40 -26 40 202 319 403 492 586 806 700 1200 64 221 94
466 75 618 -16 129 -31 153 -130 202 -114 56 -159 113 -160 201 -1 202 316
563 598 682 122 52 287 49 497 -8 116 -32 164 -36 195 -20 58 31 68 300 17
455 -67 204 -203 343 -397 409 -155 51 -354 58 -525 17 -243 -59 -427 -214
-555 -469 -41 -83 -120 -281 -120 -305 0 -6 -11 -34 -23 -62 -21 -45 -25 -48
-34 -30 -6 11 -29 84 -52 163 -73 257 -154 409 -281 533 -81 78 -193 140 -307
170 -77 20 -267 33 -343 22z"/>
<path d="M8855 12341 c-97 -25 -181 -61 -263 -114 -139 -90 -216 -179 -210
-244 3 -35 7 -39 51 -55 26 -10 136 -29 245 -43 209 -27 279 -43 352 -80 224
-115 360 -435 434 -1026 36 -281 49 -467 44 -636 -6 -221 -21 -241 -195 -253
-135 -9 -188 -25 -233 -70 -48 -48 -71 -122 -77 -246 -7 -129 12 -201 66 -255
44 -44 81 -55 228 -68 112 -10 171 -27 206 -59 58 -52 82 -184 53 -285 -33
-114 -112 -161 -329 -198 -205 -34 -275 -69 -318 -156 -19 -40 -23 -64 -23
-148 -1 -120 23 -186 87 -240 72 -62 114 -70 357 -70 l215 0 12 -26 c7 -15 22
-96 33 -180 26 -195 74 -420 112 -529 57 -164 160 -349 266 -478 l36 -45 36
41 c91 102 215 321 268 473 40 115 87 330 112 519 22 166 35 219 53 222 7 1
107 2 222 2 195 1 214 3 267 24 112 45 168 141 168 286 0 83 -12 131 -43 177
-46 69 -110 95 -310 129 -156 27 -215 50 -265 104 -50 55 -66 102 -65 198 1
95 28 158 83 194 38 25 86 36 248 53 119 13 166 37 201 106 24 46 26 59 26
190 0 125 -3 146 -23 191 -47 103 -100 131 -273 143 -196 14 -204 26 -204 311
1 334 61 817 133 1065 64 219 131 352 228 449 109 108 176 133 469 171 254 33
305 50 305 98 0 62 -124 191 -255 266 -164 94 -359 132 -517 101 -244 -47
-502 -288 -658 -614 -26 -56 -76 -180 -110 -276 -34 -96 -70 -183 -80 -194
-18 -18 -18 -18 -33 5 -9 13 -41 96 -72 184 -104 296 -207 481 -353 636 -133
142 -257 221 -393 254 -85 20 -227 18 -314 -4z"/>
<path d="M4780 11990 c-273 -38 -455 -188 -511 -420 -16 -69 -17 -227 0 -305
22 -104 68 -252 149 -485 145 -414 182 -577 182 -799 0 -240 -36 -436 -109
-588 -66 -136 -143 -203 -271 -233 -78 -18 -111 -34 -142 -67 -76 -80 -62
-185 57 -423 86 -173 85 -163 28 -188 -162 -69 -1247 -461 -2671 -963 -326
-115 -595 -209 -599 -209 -4 0 94 61 217 137 1506 916 2764 1689 2990 1838 85
56 166 108 180 115 54 27 113 85 133 129 30 67 19 125 -72 397 -86 258 -130
422 -161 604 -19 115 -26 183 -55 550 -30 369 -49 447 -108 438 -77 -12 -115
-252 -103 -668 7 -277 25 -458 68 -710 18 -102 32 -207 33 -235 0 -43 -3 -50
-21 -53 -11 -2 -104 27 -205 63 -101 37 -207 72 -236 78 l-51 11 -59 -48
c-279 -230 -3450 -3096 -3434 -3104 11 -4 2554 810 3609 1154 576 188 759 252
778 271 10 11 14 42 14 121 0 157 15 280 37 304 16 18 27 20 88 15 181 -14
515 -130 756 -263 259 -143 460 -341 582 -572 85 -161 149 -400 129 -477 -11
-44 -80 -74 -347 -150 -126 -36 -241 -73 -254 -83 -29 -22 -45 -65 -191 -512
-317 -978 -1425 -4518 -1416 -4527 9 -9 2568 2793 3227 3533 329 370 359 407
359 442 0 17 -23 95 -51 174 -120 336 -152 442 -153 503 -1 54 1 60 25 72 74
36 374 63 705 63 671 0 954 -82 1276 -370 107 -96 228 -256 228 -302 0 -7
-124 -135 -276 -284 l-277 -272 6 -68 c6 -79 136 -729 362 -1824 224 -1081
774 -3706 791 -3776 8 -30 21 30 434 2001 397 1900 672 3242 720 3518 l22 127
-28 38 c-15 20 -96 102 -178 182 -275 264 -346 338 -346 362 0 42 60 128 165
236 190 197 402 322 638 377 272 63 954 73 1284 20 109 -18 142 -31 149 -61 9
-36 -32 -182 -122 -431 -46 -127 -86 -249 -90 -270 -6 -38 -3 -42 97 -158 315
-368 1222 -1366 3343 -3682 82 -90 151 -162 152 -160 1 1 -137 450 -307 997
-591 1898 -979 3128 -1166 3694 l-115 348 -43 19 c-23 10 -130 44 -236 74
-246 71 -302 92 -330 121 -20 21 -21 30 -16 101 10 147 88 354 190 509 139
210 321 367 585 503 253 129 609 241 737 229 61 -5 67 -27 75 -251 4 -150 8
-190 20 -197 39 -25 1273 -428 2885 -943 1408 -451 1497 -479 1501 -475 3 4
-1322 1212 -2171 1979 -714 644 -1181 1059 -1279 1136 -47 36 -48 37 -100 26
-28 -6 -126 -39 -216 -72 -199 -74 -235 -82 -245 -53 -3 12 8 97 24 189 66
365 85 604 78 976 -5 281 -16 367 -54 446 -13 25 -26 37 -44 39 -37 4 -58 -25
-74 -109 -12 -67 -22 -168 -70 -769 -9 -102 -29 -322 -45 -490 -39 -408 -43
-480 -35 -541 l7 -52 62 6 c33 4 126 22 206 41 325 78 426 99 450 93 29 -8
222 -176 900 -786 531 -478 1682 -1521 1715 -1553 20 -20 20 -20 -5 -8 -128
65 -1852 1039 -2415 1365 -711 411 -943 558 -1003 634 -94 118 -193 321 -240
490 -23 84 -27 115 -27 246 0 196 4 213 213 825 45 129 90 281 101 337 65 315
-32 555 -271 673 -98 48 -184 68 -328 76 -431 26 -846 -175 -816 -395 9 -63
68 -167 190 -335 205 -280 237 -343 257 -507 23 -194 -21 -462 -121 -725 -73
-196 -146 -301 -507 -732 -254 -303 -371 -460 -458 -613 -157 -274 -206 -614
-149 -1034 26 -188 96 -445 140 -512 28 -44 177 -106 454 -188 85 -26 199 -60
252 -76 l97 -29 22 -58 c50 -130 480 -1449 944 -2892 130 -404 247 -769 260
-809 14 -41 21 -71 16 -65 -5 5 -219 371 -476 814 -1078 1856 -1778 3046
-1875 3190 -153 226 -225 552 -191 863 26 236 114 405 686 1322 498 798 532
863 576 1113 28 153 31 386 6 485 -46 184 -188 339 -370 405 -166 60 -463 17
-554 -80 -12 -13 -32 -46 -44 -73 -21 -45 -24 -73 -30 -275 -8 -253 -18 -307
-78 -456 -58 -145 -74 -220 -75 -354 l-1 -115 41 -75 c56 -100 67 -145 54
-207 -34 -151 -267 -501 -469 -704 -178 -178 -409 -285 -538 -250 -25 6 -96
42 -159 80 -193 117 -335 166 -529 180 -192 14 -453 -16 -545 -64 -39 -20 -39
-54 0 -99 58 -65 74 -119 73 -236 -1 -181 -40 -314 -113 -394 -66 -71 -118
-88 -300 -95 -93 -4 -164 -12 -177 -19 -50 -27 -66 -96 -88 -362 -30 -360 -68
-462 -281 -761 -127 -178 -148 -223 -148 -304 1 -104 22 -135 227 -338 314
-312 567 -594 567 -633 0 -30 -130 -646 -495 -2349 -385 -1794 -414 -1927
-418 -1931 -4 -5 -17 3342 -17 4526 l0 856 -42 40 c-24 23 -64 53 -89 67 -145
82 -279 251 -340 430 -35 102 -54 212 -68 392 -22 274 -40 343 -96 369 -24 12
-64 16 -152 16 -136 0 -218 17 -277 58 -90 62 -143 200 -153 397 -7 137 8 198
67 269 22 26 40 54 40 62 0 79 -452 137 -705 89 -121 -22 -270 -82 -390 -156
-149 -92 -177 -103 -249 -95 -210 22 -441 194 -668 496 -165 221 -256 389
-266 492 -5 55 -2 64 47 161 51 100 52 106 52 188 1 135 -21 238 -84 389 -45
109 -63 203 -82 419 -36 408 -77 456 -390 456 -156 0 -235 -18 -348 -78 -124
-65 -220 -200 -252 -352 -29 -140 -14 -398 36 -593 38 -151 171 -389 564
-1012 377 -598 576 -950 634 -1119 33 -97 102 -586 108 -773 6 -175 -4 -253
-43 -331 -39 -79 -36 -101 74 -497 33 -118 65 -237 70 -263 l10 -49 -66 -81
c-216 -267 -939 -1109 -2146 -2497 -241 -278 -445 -512 -454 -520 -8 -8 -4 5
10 30 14 25 147 259 295 520 966 1701 1699 3011 1884 3365 100 193 113 242
112 445 -1 256 -62 565 -181 927 -114 345 -190 465 -627 988 -382 457 -428
529 -515 794 -67 203 -84 311 -85 511 0 153 3 184 22 245 26 84 90 187 236
385 218 295 236 389 101 522 -81 81 -237 151 -408 183 -98 19 -327 27 -416 15z"/>
<path d="M39585 5274 c-104 -12 -221 -36 -306 -65 -486 -162 -827 -576 -900
-1088 -16 -115 -6 -360 20 -471 106 -462 437 -827 883 -974 183 -61 240 -66
730 -66 l438 0 0 720 0 720 -410 0 -410 0 0 -180 0 -180 230 0 230 0 0 -361 0
-361 -282 4 c-257 4 -290 7 -358 27 -341 102 -599 363 -692 699 -18 65 -22
104 -22 247 0 157 2 177 28 260 120 392 438 660 838 707 189 22 406 -22 572
-117 l75 -42 84 126 c46 69 91 138 100 152 l17 26 -94 52 c-115 64 -252 114
-386 141 -98 20 -304 33 -385 24z"/>
<path d="M54810 5274 c-167 -26 -285 -68 -400 -145 -214 -144 -358 -375 -389
-629 -7 -54 -11 -411 -11 -987 l0 -903 180 0 180 0 2 708 3 707 223 3 222 2 0
180 0 180 -226 0 -227 0 7 53 c19 143 101 284 215 368 77 57 148 87 244 102
l67 11 0 178 0 178 -32 -1 c-18 -1 -44 -3 -58 -5z"/>
<path d="M68230 5065 l0 -215 180 0 180 0 0 215 0 215 -180 0 -180 0 0 -215z"/>
<path d="M21440 3940 l0 -1330 175 0 175 0 0 575 0 575 415 0 415 0 0 180 0
180 -412 2 -413 3 0 395 0 395 603 3 602 2 0 175 0 175 -780 0 -780 0 0 -1330z"/>
<path d="M31733 5173 l-173 -97 0 -1233 0 -1233 180 0 179 0 3 493 3 492 26
72 c90 244 339 396 582 355 194 -33 366 -182 429 -371 21 -64 22 -84 26 -553
l4 -488 174 0 174 0 0 494 c0 543 -3 576 -60 724 -35 91 -104 202 -174 279
-100 111 -272 212 -431 254 -97 26 -306 31 -400 10 -97 -22 -220 -70 -285
-112 -33 -21 -63 -39 -65 -39 -3 0 -5 236 -5 525 0 289 -3 525 -7 525 -5 -1
-86 -44 -180 -97z"/>
<path d="M41453 5174 l-173 -96 0 -1234 0 -1234 180 0 180 0 0 1330 c0 732 -3
1330 -7 1330 -5 0 -86 -44 -180 -96z"/>
<path d="M57210 3939 l0 -1331 88 47 c48 26 126 70 174 97 l88 49 2 916 3 915
461 -673 c253 -370 465 -674 470 -676 5 -1 205 297 444 663 239 366 438 668
442 670 5 3 8 -404 8 -904 l0 -910 174 -96 c95 -53 176 -96 180 -96 3 0 6 599
6 1330 l0 1330 -183 0 -183 0 -438 -670 c-241 -369 -441 -672 -445 -675 -5 -2
-215 298 -468 668 l-460 672 -181 3 -182 2 0 -1331z"/>
<path d="M65873 5174 l-173 -95 0 -1235 0 -1234 180 0 180 0 0 328 1 327 142
111 142 111 315 -436 315 -436 223 -3 c122 -1 222 0 222 3 0 3 -175 248 -390
545 -214 296 -390 543 -390 548 0 5 192 159 427 343 l427 334 -292 3 -292 2
-422 -331 -423 -330 -3 770 c-1 424 -5 771 -10 771 -4 0 -85 -43 -179 -96z"/>
<path d="M73100 4745 c0 -289 -3 -525 -6 -525 -3 0 -19 9 -34 20 -52 37 -194
100 -275 121 -97 26 -306 31 -400 10 -315 -70 -566 -292 -663 -585 -163 -490
106 -1006 598 -1146 107 -31 308 -38 421 -16 161 33 310 110 432 226 118 111
201 245 249 402 l23 73 3 973 3 972 -176 0 -175 0 0 -525z m-422 -730 c235
-55 411 -270 414 -505 2 -147 -52 -280 -157 -385 -104 -104 -229 -156 -377
-156 -151 0 -276 57 -384 174 -69 74 -118 173 -134 269 -62 363 281 687 638
603z"/>
<path d="M30028 5012 l-177 -97 -1 -1152 0 -1153 180 0 180 0 0 710 0 710 300
0 300 0 0 180 0 180 -300 0 -300 0 -2 360 -3 359 -177 -97z"/>
<path d="M24195 4380 c-365 -55 -663 -334 -742 -694 -24 -108 -21 -290 6 -401
82 -338 346 -591 691 -661 113 -22 313 -15 420 16 306 88 536 325 616 636 23
90 25 113 21 249 -4 135 -7 160 -35 245 -79 238 -230 414 -447 521 -55 27
-135 58 -179 69 -91 23 -265 33 -351 20z m243 -365 c134 -32 255 -119 334
-239 138 -213 98 -499 -95 -672 -58 -52 -147 -100 -222 -120 -59 -16 -192 -18
-255 -3 -258 59 -444 336 -400 596 50 302 348 506 638 438z"/>
<path d="M26588 4380 c-313 -50 -550 -223 -679 -495 -85 -180 -83 -161 -87
-752 l-3 -523 181 0 180 0 0 478 c0 525 1 535 61 654 19 38 58 89 98 129 201
201 507 210 723 20 25 -23 49 -41 53 -41 11 0 265 221 265 230 0 14 -92 100
-157 146 -81 59 -193 109 -295 134 -97 23 -258 33 -340 20z"/>
<path d="M34821 4379 c-210 -27 -431 -150 -564 -314 -67 -83 -121 -183 -159
-295 -31 -92 -32 -101 -33 -265 0 -149 3 -180 23 -250 87 -299 311 -525 614
-617 71 -22 88 -22 606 -26 l532 -3 0 175 0 174 -487 5 c-536 4 -532 4 -654
68 -79 41 -184 145 -222 219 l-28 55 685 3 685 2 8 48 c13 75 7 261 -11 336
-107 455 -529 745 -995 685z m302 -383 c114 -43 206 -117 272 -220 19 -29 37
-65 41 -80 l6 -26 -496 0 c-402 0 -496 2 -496 13 0 26 72 133 128 189 63 65
161 121 248 143 85 21 211 13 297 -19z"/>
<path d="M43231 4379 c-206 -26 -424 -147 -553 -303 -140 -169 -197 -322 -205
-542 -8 -208 31 -358 137 -523 58 -91 189 -220 272 -269 91 -54 206 -99 297
-118 113 -22 314 -15 421 16 490 140 761 658 599 1145 -44 132 -108 234 -214
340 -203 203 -466 291 -754 254z m300 -382 c237 -86 388 -333 351 -573 -33
-210 -203 -397 -402 -443 -68 -16 -199 -13 -261 5 -185 54 -337 212 -379 394
-65 276 115 563 398 635 81 21 209 13 293 -18z"/>
<path d="M45770 4384 c-120 -21 -154 -30 -229 -56 -233 -85 -439 -300 -519
-541 -46 -139 -52 -217 -52 -719 l0 -458 180 0 179 0 3 493 3 492 26 72 c90
244 339 396 582 355 92 -16 198 -66 263 -125 29 -26 56 -47 61 -47 7 0 178
142 272 226 3 3 -13 23 -35 45 -101 104 -271 202 -418 239 -75 19 -264 33
-316 24z"/>
<path d="M47332 3873 c5 -588 5 -588 92 -768 123 -255 351 -429 631 -482 109
-21 313 -13 410 16 76 23 200 79 245 111 15 11 31 20 34 20 3 0 6 -47 6 -104
0 -171 -53 -297 -170 -407 -116 -109 -275 -161 -424 -140 -131 18 -272 97
-341 190 l-30 41 -202 0 -203 0 21 -52 c51 -131 176 -289 294 -373 158 -112
326 -166 520 -166 136 -1 223 15 340 60 266 102 478 353 536 635 18 85 19 149
19 1014 l0 922 -180 0 -180 0 0 -488 c0 -418 -2 -496 -16 -543 -53 -179 -193
-320 -374 -373 -78 -24 -209 -22 -291 3 -178 55 -335 229 -369 410 -6 31 -10
247 -10 522 l0 469 -181 0 -180 0 3 -517z"/>
<path d="M52231 4379 c-206 -26 -424 -147 -553 -303 -140 -169 -197 -322 -205
-542 -8 -208 31 -358 137 -523 58 -91 189 -220 272 -269 91 -54 206 -99 297
-118 113 -22 314 -15 421 16 490 140 761 658 599 1145 -44 132 -108 234 -214
340 -203 203 -466 291 -754 254z m300 -382 c237 -86 388 -333 351 -573 -33
-210 -203 -397 -402 -443 -68 -16 -199 -13 -261 5 -185 54 -337 212 -379 394
-65 276 115 563 398 635 81 21 209 13 293 -18z"/>
<path d="M61305 4380 c-365 -55 -663 -334 -742 -694 -24 -108 -21 -290 6 -401
82 -338 346 -591 691 -661 112 -22 313 -15 418 15 72 21 172 66 242 109 19 12
38 22 43 22 4 0 7 -36 7 -80 l0 -80 175 0 176 0 -3 533 -3 532 -33 95 c-82
241 -231 414 -447 521 -55 27 -135 58 -179 69 -91 23 -265 33 -351 20z m243
-365 c134 -32 255 -119 334 -239 138 -213 98 -499 -95 -672 -58 -52 -158 -105
-231 -123 -62 -15 -176 -16 -241 -1 -169 38 -319 174 -381 346 -139 381 219
782 614 689z"/>
<path d="M63865 4384 c-231 -34 -382 -108 -535 -263 -107 -108 -165 -200 -211
-334 -44 -130 -49 -201 -49 -708 l0 -469 180 0 180 0 0 470 c0 301 4 488 11
522 6 29 26 85 44 123 130 271 455 381 719 243 78 -41 192 -155 229 -229 56
-112 57 -123 57 -646 l0 -483 181 0 180 0 -3 528 c-4 514 -5 529 -27 602 -54
178 -172 355 -306 458 -88 67 -227 136 -329 162 -76 19 -259 33 -321 24z"/>
<path d="M68230 3500 l0 -890 180 0 180 0 0 890 0 890 -180 0 -180 0 0 -890z"/>
<path d="M70008 4380 c-207 -33 -371 -115 -512 -256 -105 -105 -185 -245 -228
-399 -21 -77 -22 -99 -26 -597 l-3 -518 180 0 181 0 0 478 c0 524 2 541 61
652 108 203 336 319 555 281 203 -35 376 -196 429 -398 12 -47 15 -144 15
-535 l0 -478 180 0 180 0 0 483 c0 495 -4 560 -41 677 -95 294 -334 518 -631
590 -97 23 -258 33 -340 20z"/>
</g>
</svg>
